<?xml version="1.0" encoding="UTF-8" standalone="no"?>
<!DOCTYPE svg PUBLIC "-//W3C//DTD SVG 1.1//EN" "http://www.w3.org/Graphics/SVG/1.1/DTD/svg11.dtd">
<svg width="100%" height="100%" viewBox="0 0 24 24" version="1.1" xmlns="http://www.w3.org/2000/svg" xmlns:xlink="http://www.w3.org/1999/xlink" xml:space="preserve" xmlns:serif="http://www.serif.com/" style="fill-rule:evenodd;clip-rule:evenodd;stroke-linecap:round;stroke-linejoin:round;stroke-miterlimit:1.5;">
    <g transform="matrix(1,0,0,1,-795.045,-272.35)">
        <g id="text" transform="matrix(0.51276,0,0,0.51276,705.887,213.632)">
            <rect x="173.879" y="114.512" width="46.806" height="46.806" style="fill:none;"/>
            <g transform="matrix(1.37902,-1.37902,1.95623,1.95623,-1469.31,690.19)">
                <path d="M806.713,282.18L810.05,282.18C812.113,282.18 813.784,283.358 813.784,284.812C813.784,284.812 813.784,284.813 813.784,284.814C813.784,286.268 812.113,287.446 810.05,287.446C809.02,287.446 807.866,287.446 806.713,287.446" style="fill:none;stroke:black;stroke-width:1.22px;"/>
            </g>
            <g transform="matrix(1.37902,-1.37902,1.95623,1.95623,-1475.39,696.268)">
                <path d="M806.713,287.446L803.375,287.446C801.313,287.446 799.641,286.268 799.641,284.814C799.641,284.813 799.641,284.812 799.641,284.812C799.641,283.358 801.313,282.18 803.375,282.18C804.406,282.18 805.559,282.18 806.713,282.18" style="fill:none;stroke:black;stroke-width:1.22px;"/>
            </g>
            <g transform="matrix(1.37902,-1.37902,1.37902,1.37902,-1308.95,859.895)">
                <path d="M803.34,284.35L812.543,284.35" style="fill:none;stroke:black;stroke-width:1.5px;"/>
            </g>
        </g>
    </g>
</svg>
