<?xml version="1.0" encoding="UTF-8" standalone="no"?>
<!DOCTYPE svg PUBLIC "-//W3C//DTD SVG 1.1//EN" "http://www.w3.org/Graphics/SVG/1.1/DTD/svg11.dtd">
<svg width="100%" height="100%" viewBox="0 0 24 24" version="1.1" xmlns="http://www.w3.org/2000/svg" xmlns:xlink="http://www.w3.org/1999/xlink" xml:space="preserve" xmlns:serif="http://www.serif.com/" style="fill-rule:evenodd;clip-rule:evenodd;stroke-linejoin:round;stroke-miterlimit:2;">
    <g transform="matrix(1,0,0,1,-303.383,-440.421)">
        <g id="image" transform="matrix(1,0,0,1,-962.712,121.421)">
            <rect x="1266.1" y="319" width="24" height="24" style="fill:none;"/>
            <g transform="matrix(1.09821,0,0,1.09821,960.948,-166.289)">
                <path d="M284.247,458.22L282.42,458.541C282.235,458.574 282.044,458.528 281.893,458.415C281.742,458.302 281.645,458.132 281.624,457.945C281.424,456.162 280.37,454.83 280.288,454.659L280.232,454.492L280.22,454.278L280.27,454.084L280.361,453.928L280.548,453.761L280.556,453.758L287.936,447.179C288.18,446.962 288.545,446.948 288.805,447.146C290.208,448.218 291.122,449.888 291.695,451.52C292.524,453.881 292.644,456.135 292.644,456.135C292.663,456.48 292.421,456.785 292.081,456.844L287.957,457.569L288.583,459.934C288.676,460.284 288.479,460.646 288.134,460.758L285.753,461.532C285.57,461.592 285.371,461.571 285.204,461.476C285.036,461.381 284.917,461.22 284.875,461.032L284.247,458.22ZM286.606,457.806L285.594,457.984L286.045,460.001L287.097,459.659L286.606,457.806ZM281.79,454.488C282.101,455.007 282.605,455.963 282.859,457.078C282.859,457.078 291.225,455.608 291.225,455.608C291.136,454.838 290.917,453.427 290.406,451.972C289.98,450.756 289.352,449.501 288.401,448.595L281.79,454.488ZM292.028,447.39C291.813,447.699 291.387,447.776 291.078,447.56C290.768,447.345 290.692,446.919 290.907,446.61C290.907,446.61 291.655,445.533 292.295,444.241C292.462,443.903 292.872,443.765 293.21,443.932C293.548,444.1 293.686,444.51 293.519,444.848C292.832,446.234 292.028,447.39 292.028,447.39ZM294.167,451.042C293.813,451.17 293.421,450.987 293.293,450.632C293.164,450.278 293.347,449.886 293.702,449.758C293.702,449.758 295.6,449.075 296.47,448.508C296.786,448.303 297.21,448.392 297.415,448.708C297.621,449.024 297.532,449.447 297.216,449.653C296.256,450.278 294.167,451.042 294.167,451.042ZM294.578,454.944C294.212,455.033 293.842,454.808 293.753,454.442C293.664,454.075 293.889,453.706 294.255,453.617C294.255,453.617 295.07,453.419 295.971,453.355C296.635,453.308 297.34,453.344 297.851,453.538C298.204,453.671 298.381,454.066 298.248,454.418C298.114,454.771 297.72,454.948 297.367,454.815C297.015,454.681 296.525,454.685 296.067,454.717C295.285,454.773 294.578,454.944 294.578,454.944Z"/>
            </g>
        </g>
    </g>
</svg>
