<?xml version="1.0" encoding="UTF-8" standalone="no"?><!DOCTYPE svg PUBLIC "-//W3C//DTD SVG 1.1//EN" "http://www.w3.org/Graphics/SVG/1.1/DTD/svg11.dtd"><svg width="100%" height="100%" viewBox="0 0 300 300" version="1.1" xmlns="http://www.w3.org/2000/svg" xmlns:xlink="http://www.w3.org/1999/xlink" xml:space="preserve" xmlns:serif="http://www.serif.com/" style="fill-rule:evenodd;clip-rule:evenodd;stroke-linecap:round;stroke-linejoin:round;stroke-miterlimit:1.5;"><rect id="Plan-de-travail3" serif:id="Plan de travail3" x="0" y="-0" width="300" height="300" style="fill:none;"/><rect x="7.49" y="7.49" width="285.021" height="285.021" style="fill:#eff0f5;"/><path d="M256.595,91.133c2.409,-0 4.72,0.957 6.424,2.661c1.704,1.703 2.661,4.014 2.661,6.424c0,21.941 0,77.623 0,99.564c0,2.41 -0.957,4.721 -2.661,6.424c-1.704,1.704 -4.015,2.661 -6.424,2.661c-36.926,0 -175.54,0 -212.466,0c-2.409,0 -4.72,-0.957 -6.424,-2.661c-1.704,-1.703 -2.661,-4.014 -2.661,-6.424c-0,-21.941 -0,-77.623 -0,-99.564c-0,-2.41 0.957,-4.721 2.661,-6.424c1.704,-1.704 4.015,-2.661 6.424,-2.661c36.926,-0 175.54,-0 212.466,-0Z" style="fill:none;stroke:#b7b8c9;stroke-width:6.25px;"/></svg>