<?xml version="1.0" encoding="UTF-8" standalone="no"?><!DOCTYPE svg PUBLIC "-//W3C//DTD SVG 1.1//EN" "http://www.w3.org/Graphics/SVG/1.1/DTD/svg11.dtd"><svg width="100%" height="100%" viewBox="0 0 300 300" version="1.1" xmlns="http://www.w3.org/2000/svg" xmlns:xlink="http://www.w3.org/1999/xlink" xml:space="preserve" xmlns:serif="http://www.serif.com/" style="fill-rule:evenodd;clip-rule:evenodd;stroke-linecap:round;stroke-linejoin:round;stroke-miterlimit:1.5;"><rect id="Plan-de-travail3" serif:id="Plan de travail3" x="0" y="-0" width="300" height="300" style="fill:none;"/><rect x="7.49" y="7.49" width="285.021" height="285.021" style="fill:#eff0f5;"/><path d="M136.686,91.133c2.215,-0 4.34,0.88 5.907,2.446c1.567,1.567 2.447,3.692 2.447,5.908c-0,21.648 -0,79.378 -0,101.026c-0,2.216 -0.88,4.341 -2.447,5.908c-1.567,1.566 -3.692,2.446 -5.907,2.446c-20.45,0 -72.839,0 -93.288,0c-2.216,0 -4.341,-0.88 -5.907,-2.446c-1.567,-1.567 -2.447,-3.692 -2.447,-5.908c-0,-21.648 -0,-79.378 -0,-101.026c-0,-2.216 0.88,-4.341 2.447,-5.908c1.566,-1.566 3.691,-2.446 5.907,-2.446c20.449,-0 72.838,-0 93.288,-0Z" style="fill:none;stroke:#b7b8c9;stroke-width:6.25px;"/><path d="M165.894,207.874c-4.614,0 -8.354,-3.74 -8.354,-8.354c-0,-21.344 -0,-77.696 -0,-99.04c-0,-4.614 3.74,-8.354 8.354,-8.354c20.156,-0 71.276,-0 91.432,-0c4.614,-0 8.354,3.74 8.354,8.354c0,21.344 0,77.696 0,99.04c0,4.614 -3.74,8.354 -8.354,8.354c-20.156,0 -71.276,0 -91.432,0Z" style="fill:none;stroke:#b7b8c9;stroke-width:6.25px;"/></svg>