<?xml version="1.0" encoding="UTF-8" standalone="no"?>
<!DOCTYPE svg PUBLIC "-//W3C//DTD SVG 1.1//EN" "http://www.w3.org/Graphics/SVG/1.1/DTD/svg11.dtd">
<svg width="100%" height="100%" viewBox="0 0 24 24" version="1.1" xmlns="http://www.w3.org/2000/svg" xmlns:xlink="http://www.w3.org/1999/xlink" xml:space="preserve" xmlns:serif="http://www.serif.com/" style="fill-rule:evenodd;clip-rule:evenodd;stroke-linejoin:round;stroke-miterlimit:2;">
    <g transform="matrix(1,0,0,1,-362.102,-249.925)">
        <g id="tableau-de-bord" serif:id="tableau de bord" transform="matrix(0.51276,0,0,0.51276,272.943,191.208)">
            <rect x="173.879" y="114.512" width="46.806" height="46.806" style="fill:none;"/>
            <g transform="matrix(4.60212,0,0,5.36215,-3154.26,-684.586)">
                <path d="M725.392,152.844L725.392,151.967C725.392,151.462 725.87,151.052 726.458,151.052L727.48,151.052C727.487,150.788 727.612,150.537 727.83,150.35C728.054,150.157 728.359,150.049 728.676,150.049C728.994,150.049 729.298,150.157 729.523,150.35C729.741,150.537 729.866,150.788 729.873,151.052L730.894,151.052C731.483,151.052 731.961,151.462 731.961,151.967L731.961,153.116C731.961,153.267 731.818,153.389 731.643,153.389L731.553,153.389C731.243,153.389 730.992,153.604 730.992,153.87C730.992,154.136 731.243,154.352 731.553,154.352L731.701,154.352C731.77,154.352 731.837,154.376 731.885,154.418C731.934,154.459 731.961,154.516 731.961,154.575C731.961,154.976 731.961,155.774 731.961,155.774C731.961,156.279 731.483,156.689 730.894,156.689C730.894,156.689 730.088,156.687 729.601,156.686C729.401,156.685 729.238,156.546 729.237,156.374C729.237,156.331 729.237,156.302 729.237,156.302C729.235,156.037 728.985,155.823 728.677,155.823L728.674,155.823C728.366,155.823 728.116,156.037 728.115,156.301C728.115,156.301 728.115,156.331 728.115,156.375C728.115,156.547 727.952,156.687 727.751,156.687C727.263,156.688 726.458,156.689 726.458,156.689C725.87,156.689 725.392,156.279 725.392,155.774L725.392,154.897C725.09,154.888 724.802,154.781 724.587,154.597C724.362,154.404 724.236,154.143 724.236,153.87C724.236,153.598 724.362,153.337 724.587,153.144C724.802,152.96 725.09,152.853 725.392,152.844ZM725.433,154.352C725.433,154.352 725.548,154.351 725.677,154.351C725.77,154.35 725.859,154.381 725.925,154.437C725.991,154.494 726.028,154.57 726.028,154.649C726.028,155.068 726.028,155.774 726.028,155.774C726.028,155.978 726.221,156.144 726.458,156.144L727.494,156.144C727.583,155.653 728.078,155.278 728.674,155.278L728.677,155.278C729.273,155.278 729.768,155.653 729.858,156.144L730.894,156.144C731.132,156.144 731.325,155.978 731.325,155.774L731.325,154.879C730.773,154.788 730.356,154.371 730.356,153.87C730.356,153.37 730.773,152.953 731.325,152.862L731.325,151.967C731.325,151.763 731.132,151.597 730.894,151.597C730.894,151.597 730.01,151.597 729.534,151.597C729.37,151.597 729.238,151.483 729.238,151.343C729.238,151.21 729.238,151.076 729.238,151.076C729.238,150.948 729.179,150.826 729.073,150.736C728.968,150.645 728.825,150.594 728.676,150.594C728.528,150.594 728.385,150.645 728.279,150.736C728.174,150.826 728.115,150.948 728.115,151.076C728.115,151.076 728.115,151.21 728.115,151.343C728.115,151.483 727.983,151.597 727.819,151.597C727.342,151.597 726.458,151.597 726.458,151.597C726.221,151.597 726.028,151.763 726.028,151.967L726.028,153.116C726.028,153.267 725.885,153.389 725.71,153.389L725.433,153.389C725.284,153.389 725.141,153.439 725.036,153.53C724.931,153.62 724.872,153.743 724.872,153.87C724.872,153.998 724.931,154.121 725.036,154.211C725.141,154.301 725.284,154.352 725.433,154.352Z"/>
            </g>
        </g>
    </g>
</svg>
