<?xml version="1.0" encoding="UTF-8" standalone="no"?>
<!DOCTYPE svg PUBLIC "-//W3C//DTD SVG 1.1//EN" "http://www.w3.org/Graphics/SVG/1.1/DTD/svg11.dtd">
<svg width="100%" height="100%" viewBox="0 0 24 24" version="1.1" xmlns="http://www.w3.org/2000/svg" xmlns:xlink="http://www.w3.org/1999/xlink" xml:space="preserve" xmlns:serif="http://www.serif.com/" style="fill-rule:evenodd;clip-rule:evenodd;stroke-linejoin:round;stroke-miterlimit:2;">
    <g transform="matrix(1,0,0,1,-459.463,-505.782)">
        <g id="tableau-de-bord" serif:id="tableau de bord" transform="matrix(0.51276,0,0,0.51276,370.304,447.065)">
            <rect x="173.879" y="114.512" width="46.806" height="46.806" style="fill:none;"/>
            <g transform="matrix(2.22383,0,0,2.22383,-1432.1,-196.399)">
                <path d="M732.3,152.597L732.3,155.143C732.3,156.209 731.435,157.074 730.37,157.074L726.983,157.074C725.917,157.074 725.052,156.209 725.052,155.143L725.052,152.597C725.052,151.532 725.917,150.667 726.983,150.667L730.37,150.667C731.435,150.667 732.3,151.532 732.3,152.597ZM730.985,152.597C730.985,152.258 730.709,151.982 730.37,151.982L726.983,151.982C726.643,151.982 726.368,152.258 726.368,152.597L726.368,155.143C726.368,155.483 726.643,155.759 726.983,155.759L730.37,155.759C730.709,155.759 730.985,155.483 730.985,155.143L730.985,152.597Z"/>
            </g>
            <g transform="matrix(2.22383,0,0,2.14309,-1432.1,-199.916)">
                <path d="M732.3,152.597L732.3,155.143C732.3,156.223 731.456,157.099 730.416,157.099L726.937,157.099C725.897,157.099 725.052,156.223 725.052,155.143L725.052,152.597C725.052,151.518 725.897,150.642 726.937,150.642L730.416,150.642C731.456,150.642 732.3,151.518 732.3,152.597ZM730.985,152.597C730.985,152.272 730.73,152.007 730.416,152.007L726.937,152.007C726.623,152.007 726.368,152.272 726.368,152.597L726.368,155.143C726.368,155.469 726.623,155.734 726.937,155.734L730.416,155.734C730.73,155.734 730.985,155.469 730.985,155.143L730.985,152.597Z"/>
            </g>
            <g transform="matrix(2.17476,0,0,5.31402,-1378.33,-679.756)">
                <path d="M732.315,151.931L732.315,155.809C732.315,156.296 731.349,156.692 730.16,156.692L727.193,156.692C726.003,156.692 725.037,156.296 725.037,155.809L725.037,151.931C725.037,151.445 726.003,151.049 727.193,151.049L730.16,151.049C731.349,151.049 732.315,151.445 732.315,151.931ZM730.97,151.931C730.97,151.748 730.607,151.6 730.16,151.6L727.193,151.6C726.746,151.6 726.383,151.748 726.383,151.931L726.383,155.809C726.383,155.992 726.746,156.141 727.193,156.141L730.16,156.141C730.607,156.141 730.97,155.992 730.97,155.809L730.97,151.931Z"/>
            </g>
        </g>
    </g>
</svg>
