<?xml version="1.0" encoding="UTF-8" standalone="no"?>
<!DOCTYPE svg PUBLIC "-//W3C//DTD SVG 1.1//EN" "http://www.w3.org/Graphics/SVG/1.1/DTD/svg11.dtd">
<svg width="100%" height="100%" viewBox="0 0 24 24" version="1.1" xmlns="http://www.w3.org/2000/svg" xmlns:xlink="http://www.w3.org/1999/xlink" xml:space="preserve" xmlns:serif="http://www.serif.com/" style="fill-rule:evenodd;clip-rule:evenodd;stroke-linejoin:round;stroke-miterlimit:2;">
    <g transform="matrix(1,0,0,1,-418.147,-505.782)">
        <g id="modifier" transform="matrix(0.51276,0,0,0.51276,328.988,447.065)">
            <rect x="173.879" y="114.512" width="46.806" height="46.806" style="fill:none;"/>
            <g transform="matrix(1.3241,1.3241,-1.3241,1.3241,-1660.25,-1753.26)">
                <path d="M1418.41,5.464L1418.41,21.085C1418.41,21.259 1418.35,21.427 1418.25,21.564L1416.19,24.217C1416.04,24.408 1415.81,24.52 1415.57,24.52C1415.33,24.52 1415.1,24.408 1414.95,24.217L1412.9,21.564C1412.79,21.427 1412.73,21.259 1412.73,21.085L1412.73,5.464C1412.73,4.712 1413.03,3.99 1413.56,3.458C1414.1,2.926 1414.82,2.627 1415.57,2.627L1415.57,2.627C1416.33,2.627 1417.05,2.926 1417.58,3.458C1418.11,3.99 1418.41,4.712 1418.41,5.464ZM1414.3,7.782L1414.3,20.818L1415.57,22.464L1416.85,20.818L1416.85,7.782L1414.3,7.782ZM1416.85,6.22L1416.85,5.464C1416.85,5.126 1416.71,4.802 1416.48,4.563C1416.24,4.324 1415.91,4.189 1415.57,4.189L1415.57,4.189C1415.23,4.189 1414.91,4.324 1414.67,4.563C1414.43,4.802 1414.3,5.126 1414.3,5.464L1414.3,6.22L1416.85,6.22Z"/>
            </g>
        </g>
    </g>
</svg>
