<?xml version="1.0" encoding="UTF-8" standalone="no"?>
<!DOCTYPE svg PUBLIC "-//W3C//DTD SVG 1.1//EN" "http://www.w3.org/Graphics/SVG/1.1/DTD/svg11.dtd">
<svg width="100%" height="100%" viewBox="0 0 24 24" version="1.1" xmlns="http://www.w3.org/2000/svg" xmlns:xlink="http://www.w3.org/1999/xlink" xml:space="preserve" xmlns:serif="http://www.serif.com/" style="fill-rule:evenodd;clip-rule:evenodd;stroke-linecap:round;stroke-linejoin:round;stroke-miterlimit:1.5;">
    <g transform="matrix(1,0,0,1,-689.252,-308.615)">
        <g id="masquer" transform="matrix(0.51276,0,0,0.51276,600.093,249.898)">
            <rect x="173.879" y="114.512" width="46.806" height="46.806" style="fill:none;"/>
            <g transform="matrix(2.06132,0,0,1.2406,-1165.2,122.536)">
                <path d="M669.106,12.397C669.106,12.397 665.463,20.527 660.976,20.527C656.488,20.527 652.845,12.397 652.845,12.397" style="fill:none;stroke:white;stroke-width:1.72px;"/>
            </g>
            <g transform="matrix(1.95023,0,0,1.95023,-1178.79,-0.425817)">
                <path d="M699.516,73.522L698.387,74.739" style="fill:none;stroke:white;stroke-width:1.5px;"/>
            </g>
            <g transform="matrix(1.97425,-0.0637555,-0.0637555,2.11945,-1190.85,31.5994)">
                <path d="M703.201,75.689L702.711,76.99" style="fill:none;stroke:white;stroke-width:1.47px;"/>
            </g>
            <g transform="matrix(1.95023,0,0,1.95023,-1178.79,-0.425817)">
                <path d="M707.983,75.689L708.683,77.119" style="fill:none;stroke:white;stroke-width:1.5px;"/>
            </g>
            <g transform="matrix(1.95023,9.95988e-15,9.95988e-15,1.95023,-1178.79,-0.425817)">
                <path d="M711.668,73.522L712.893,74.739" style="fill:none;stroke:white;stroke-width:1.5px;"/>
            </g>
        </g>
    </g>
</svg>
