<?xml version="1.0" encoding="UTF-8" standalone="no"?>
<!DOCTYPE svg PUBLIC "-//W3C//DTD SVG 1.1//EN" "http://www.w3.org/Graphics/SVG/1.1/DTD/svg11.dtd">
<svg width="100%" height="100%" viewBox="0 0 24 24" version="1.1" xmlns="http://www.w3.org/2000/svg" xmlns:xlink="http://www.w3.org/1999/xlink" xml:space="preserve" xmlns:serif="http://www.serif.com/" style="fill-rule:evenodd;clip-rule:evenodd;stroke-linejoin:round;stroke-miterlimit:2;">
    <g transform="matrix(1,0,0,1,-390.642,-285.815)">
        <g id="tableau-de-bord" serif:id="tableau de bord" transform="matrix(0.51276,0,0,0.51276,301.484,227.097)">
            <rect x="173.879" y="114.512" width="46.806" height="46.806" style="fill:none;"/>
            <g transform="matrix(6.17602,0,0,3.14016,-4303.04,-345.263)">
                <path d="M727.191,156.882L726.232,156.882C725.813,156.882 725.473,156.213 725.473,155.39L725.473,152.351C725.473,151.527 725.813,150.859 726.232,150.859L727.191,150.859L727.191,151.79L726.232,151.79C726.075,151.79 725.947,152.042 725.947,152.351L725.947,155.39C725.947,155.699 726.075,155.951 726.232,155.951L727.191,155.951L727.191,156.882ZM728.345,150.859L731.121,150.859C731.54,150.859 731.88,151.527 731.88,152.351L731.88,155.39C731.88,156.213 731.54,156.882 731.121,156.882L728.345,156.882L728.345,155.951L731.121,155.951C731.278,155.951 731.406,155.699 731.406,155.39L731.406,152.351C731.406,152.042 731.278,151.79 731.121,151.79L728.345,151.79L728.345,150.859Z" style="fill:white;"/>
            </g>
            <g transform="matrix(1.76748,0,0,2.02607,-470.413,-467.164)">
                <path d="M373.764,293.083L371.715,293.083C371.258,293.083 370.887,292.759 370.887,292.361C370.887,291.962 371.258,291.639 371.715,291.639L377.469,291.639C377.925,291.639 378.296,291.962 378.296,292.361C378.296,292.759 377.925,293.083 377.469,293.083L375.419,293.083L375.419,304.209L377.469,304.209C377.925,304.209 378.296,304.533 378.296,304.931C378.296,305.33 377.925,305.653 377.469,305.653L371.715,305.653C371.258,305.653 370.887,305.33 370.887,304.931C370.887,304.533 371.258,304.209 371.715,304.209L373.764,304.209L373.764,293.083Z" style="fill:white;"/>
            </g>
        </g>
    </g>
</svg>
