<?xml version="1.0" encoding="UTF-8" standalone="no"?><!DOCTYPE svg PUBLIC "-//W3C//DTD SVG 1.1//EN" "http://www.w3.org/Graphics/SVG/1.1/DTD/svg11.dtd"><svg width="100%" height="100%" viewBox="0 0 1476 272" version="1.1" xmlns="http://www.w3.org/2000/svg" xmlns:xlink="http://www.w3.org/1999/xlink" xml:space="preserve" xmlns:serif="http://www.serif.com/" style="fill-rule:evenodd;clip-rule:evenodd;stroke-linecap:round;stroke-linejoin:round;stroke-miterlimit:1.5;"><rect id="Plan-de-travail2" serif:id="Plan de travail2" x="0" y="0" width="1475.81" height="271.944" style="fill:none;"/><g><path d="M311.6,41.313c-19.4,-19.4 -242.057,-19.4 -261.457,-0c-19.4,19.4 -22.016,178.049 -0,194.42c11.542,8.582 76.79,12.666 139.433,12.249c56.848,-0.377 111.55,-4.461 122.024,-12.249c22.016,-16.371 19.4,-175.02 0,-194.42Z" style="fill:#2734dd;"/><g><circle cx="186.257" cy="95.626" r="30.103" style="fill:#fff;"/><clipPath id="_clip1"><circle cx="186.257" cy="95.626" r="30.103"/></clipPath><g clip-path="url(#_clip1)"><ellipse cx="172.939" cy="95.626" rx="20.262" ry="24.209" style="fill:#090c34;"/></g></g><g><circle cx="103.489" cy="95.626" r="30.103" style="fill:#fff;"/><clipPath id="_clip2"><circle cx="103.489" cy="95.626" r="30.103"/></clipPath><g clip-path="url(#_clip2)"><ellipse cx="90.021" cy="95.626" rx="20.262" ry="24.209" style="fill:#090c34;"/></g></g><ellipse cx="189.128" cy="125.729" rx="35.995" ry="14.437" style="fill:#2734dd;"/><ellipse cx="99.465" cy="125.729" rx="35.995" ry="14.437" style="fill:#2734dd;"/><path d="M122.763,145.186c-0,-0 21.4,22.776 46.36,-0" style="fill:none;stroke:#090c34;stroke-width:6.25px;"/></g><g><path d="M452.569,53.743c7.242,0 30.039,4.111 40.017,4.393c6.675,0.188 19.849,-2.703 19.849,-2.703l-2.897,56.004l-13.518,-0c-1.287,-14.001 -5.512,-24.743 -12.673,-32.227c-7.162,-7.483 -16.777,-11.224 -28.847,-11.224c-8.529,-0 -16.214,1.891 -23.053,5.672c-6.84,3.782 -12.794,9.013 -17.864,15.691c-5.069,6.679 -9.012,14.363 -11.828,23.053c-2.816,8.691 -4.546,17.944 -5.19,27.761c-0.644,14.323 1.046,27.036 5.069,38.14c4.024,11.105 10.059,19.795 18.105,26.071c8.047,6.276 17.622,9.495 28.726,9.656c9.978,0.161 20.157,-2.132 30.537,-6.88c6.027,-2.757 11.634,-6.395 16.82,-10.915c3.746,-3.265 14.072,2.818 11.668,5.393c-5.854,6.273 -11.89,11.292 -18.108,15.057c-8.771,5.311 -17.26,8.932 -25.468,10.863c-8.207,1.931 -15.69,2.897 -22.449,2.897c-12.231,-0 -23.255,-2.213 -33.072,-6.638c-9.816,-4.426 -18.144,-10.541 -24.984,-18.347c-6.84,-7.805 -11.949,-16.897 -15.329,-27.277c-3.379,-10.38 -4.747,-21.605 -4.103,-33.675c0.643,-11.104 2.977,-22.047 7,-32.83c4.023,-10.782 9.736,-20.518 17.139,-29.209c7.403,-8.69 16.496,-15.65 27.278,-20.88c10.782,-5.231 23.174,-7.846 37.175,-7.846Z" style="fill:#fff;fill-rule:nonzero;"/><path d="M587.992,103.229c9.012,0 17.099,2.092 24.26,6.277c7.162,4.184 12.875,10.259 17.139,18.225c4.265,7.966 6.397,17.662 6.397,29.088c0,12.714 -2.414,24.623 -7.242,35.727c-4.828,11.104 -11.707,19.995 -20.639,26.674c-8.932,6.679 -19.674,10.018 -32.226,10.018c-10.783,-0 -19.714,-2.454 -26.795,-7.363c-7.081,-4.908 -12.352,-11.506 -15.812,-19.794c-3.46,-8.288 -5.19,-17.421 -5.19,-27.399c0,-12.874 2.414,-24.743 7.242,-35.605c4.828,-10.863 11.748,-19.553 20.76,-26.071c9.012,-6.518 19.714,-9.777 32.106,-9.777Zm-3.621,13.519c-5.472,-0.161 -10.3,2.051 -14.484,6.638c-4.184,4.586 -7.403,10.742 -9.656,18.467c-2.253,7.724 -3.379,16.254 -3.379,25.588c-0.161,5.149 0.08,10.5 0.724,16.052c0.644,5.553 1.81,10.743 3.5,15.57c1.69,4.828 3.983,8.771 6.88,11.829c2.897,3.058 6.518,4.586 10.863,4.586c4.989,0.161 9.213,-1.448 12.673,-4.828c3.46,-3.379 6.236,-7.724 8.328,-13.035c2.092,-5.311 3.661,-10.943 4.707,-16.898c1.046,-5.954 1.65,-11.587 1.811,-16.897c0.161,-4.667 -0.04,-9.737 -0.604,-15.208c-0.563,-5.472 -1.609,-10.622 -3.138,-15.45c-1.529,-4.827 -3.782,-8.73 -6.759,-11.707c-2.977,-2.977 -6.799,-4.547 -11.466,-4.707Z" style="fill:#fff;fill-rule:nonzero;"/><path d="M772.66,44.329c-0.483,4.667 -1.047,9.414 -1.69,14.242c-0.644,4.828 -1.247,9.495 -1.811,14.001c-0.563,4.506 -1.086,8.771 -1.569,12.794c-1.448,12.553 -2.776,24.099 -3.983,34.64c-1.207,10.541 -2.253,20.117 -3.138,28.726c-0.885,8.61 -1.649,16.254 -2.293,22.933c-0.644,6.679 -1.127,12.472 -1.449,17.381c-0.321,4.908 -0.482,9.052 -0.482,12.431c-0,2.897 0.362,5.07 1.086,6.518c0.724,1.448 1.81,2.173 3.259,2.173c2.253,-0 4.586,-1.489 7,-4.466c2.414,-2.977 15.771,-5.271 14.001,-1.086c-1.77,4.184 -4.063,8.167 -6.88,11.949c-2.816,3.782 -6.236,6.839 -10.259,9.173c-4.023,2.333 -8.771,3.5 -14.242,3.5c-6.116,-0 -11.104,-1.73 -14.967,-5.19c-3.862,-3.46 -5.874,-9.052 -6.035,-16.777c0,-5.15 0.242,-11.346 0.725,-18.588c0.482,-7.241 1.086,-15.127 1.81,-23.656c0.724,-8.53 1.569,-17.341 2.535,-26.433c0.965,-9.093 1.971,-18.185 3.017,-27.278c1.046,-9.092 2.052,-17.742 3.018,-25.95c0.482,-3.701 0.965,-7.121 1.448,-10.259c0.483,-3.138 3.379,-24.864 3.379,-24.864l27.52,-5.914Z" style="fill:#fff;fill-rule:nonzero;"/><path d="M705.993,44.329c-0.483,4.667 -1.046,9.414 -1.69,14.242c-0.644,4.828 -1.247,9.495 -1.81,14.001c-0.564,4.506 -1.087,8.771 -1.569,12.794c-1.449,12.553 -2.776,24.099 -3.983,34.64c-1.207,10.541 -2.253,20.117 -3.139,28.726c-0.885,8.61 -1.649,16.254 -2.293,22.933c-0.644,6.679 -1.126,12.472 -1.448,17.381c-0.322,4.908 -0.483,9.052 -0.483,12.431c-0,2.897 0.362,5.07 1.086,6.518c0.724,1.448 1.811,2.173 3.259,2.173c2.253,-0 4.587,-1.489 7.001,-4.466c2.414,-2.977 15.771,-5.271 14.001,-1.086c-1.771,4.184 -4.064,8.167 -6.88,11.949c-2.817,3.782 -6.236,6.839 -10.26,9.173c-4.023,2.333 -8.77,3.5 -14.242,3.5c-6.115,-0 -11.104,-1.73 -14.966,-5.19c-3.863,-3.46 -5.874,-9.052 -6.035,-16.777c-0,-5.15 0.241,-11.346 0.724,-18.588c0.483,-7.241 1.086,-15.127 1.81,-23.656c0.724,-8.53 1.569,-17.341 2.535,-26.433c0.966,-9.093 1.971,-18.185 3.017,-27.278c1.046,-9.092 2.052,-17.742 3.018,-25.95c0.483,-3.701 0.965,-7.121 1.448,-10.259c0.483,-3.138 3.38,-24.864 3.38,-24.864l27.519,-5.914Z" style="fill:#fff;fill-rule:nonzero;"/><path d="M855.7,103.229c6.598,0 12.592,1.006 17.984,3.018c5.391,2.011 9.615,5.19 12.673,9.535c3.058,4.345 4.586,9.978 4.586,16.898c0,6.598 -2.051,12.23 -6.155,16.897c-4.104,4.667 -9.495,8.489 -16.174,11.467c-6.678,2.977 -13.88,5.431 -21.605,7.362c-7.724,1.931 -15.208,3.299 -22.449,4.104c-0,9.495 1.046,17.018 3.138,22.57c2.092,5.553 4.948,9.495 8.569,11.829c3.621,2.333 7.604,3.5 11.949,3.5c3.38,0 7.122,-0.684 11.225,-2.052c4.104,-1.368 8.168,-3.902 12.191,-7.604c1.372,-1.262 2.687,-2.692 3.947,-4.291c2.434,-3.09 13.537,4.098 10.986,7.997c-2.448,3.742 -5.012,6.973 -7.691,9.692c-5.472,5.552 -11.265,9.454 -17.381,11.707c-6.115,2.253 -12.472,3.38 -19.07,3.38c-14.967,0.161 -26.554,-4.265 -34.761,-13.277c-8.208,-9.012 -12.311,-22.047 -12.311,-39.106c-0,-8.368 1.207,-16.857 3.621,-25.467c2.414,-8.61 6.075,-16.536 10.983,-23.778c4.909,-7.242 11.145,-13.115 18.708,-17.622c7.564,-4.506 16.576,-6.759 27.037,-6.759Zm-2.897,13.277c-6.115,0 -11.104,2.132 -14.967,6.397c-3.862,4.265 -6.799,9.656 -8.811,16.174c-2.011,6.517 -3.339,13.236 -3.983,20.156c8.691,-1.448 16.013,-3.581 21.967,-6.397c5.955,-2.816 10.541,-6.155 13.76,-10.018c3.219,-3.862 4.828,-8.127 4.828,-12.794c-0.161,-4.345 -1.448,-7.684 -3.862,-10.018c-2.414,-2.333 -5.392,-3.5 -8.932,-3.5Z" style="fill:#fff;fill-rule:nonzero;"/><path d="M968.19,103.229c7.242,0 13.719,1.207 19.432,3.621c5.713,2.414 10.26,5.754 13.639,10.018c3.38,4.265 5.07,9.294 5.07,15.087c-0,4.346 -1.248,7.926 -3.742,10.743c-2.494,2.816 -5.834,4.224 -10.018,4.224c-4.989,0.161 -8.489,-1.287 -10.501,-4.345c-2.011,-3.058 -3.017,-5.794 -3.017,-8.208c-0,-1.448 0.201,-3.057 0.603,-4.828c0.403,-1.77 1.087,-3.46 2.052,-5.069c-0.644,-2.414 -2.253,-4.305 -4.828,-5.673c-2.575,-1.368 -5.632,-2.051 -9.173,-2.051c-5.793,-0 -10.541,1.77 -14.242,5.31c-3.701,3.541 -6.638,8.047 -8.811,13.518c-2.173,5.472 -3.742,11.306 -4.707,17.502c-0.966,6.195 -1.449,12.029 -1.449,17.501c-0.321,9.495 0.604,17.139 2.776,22.932c2.173,5.794 5.07,10.018 8.691,12.674c3.621,2.655 7.523,4.063 11.707,4.224c3.38,0.161 7.122,-0.402 11.225,-1.69c4.104,-1.287 8.167,-3.902 12.191,-7.845c1.368,-1.341 2.69,-2.891 3.965,-4.651c2.474,-3.414 14.652,2.427 12.285,6.296c-2.558,4.182 -5.279,7.777 -8.163,10.787c-5.553,5.793 -11.427,9.897 -17.622,12.311c-6.196,2.414 -12.593,3.621 -19.191,3.621c-14.162,-0.161 -25.548,-4.506 -34.158,-13.035c-8.61,-8.53 -12.914,-21.726 -12.914,-39.589c-0,-7.886 1.166,-16.093 3.5,-24.623c2.333,-8.529 5.914,-16.455 10.742,-23.777c4.828,-7.323 10.943,-13.317 18.346,-17.984c7.403,-4.667 16.173,-7.001 26.312,-7.001Z" style="fill:#fff;fill-rule:nonzero;"/><path d="M1073.2,70.158l-4.586,35.727l32.829,-0l-1.206,14.242l-33.072,0.483c-0.643,6.115 -1.368,12.593 -2.172,19.432c-0.805,6.84 -1.489,13.559 -2.052,20.157c-0.563,6.598 -1.086,12.673 -1.569,18.225c-0.483,5.552 -0.724,10.099 -0.724,13.639c-0,2.414 0.241,4.989 0.724,7.725c0.483,2.735 1.529,5.069 3.138,7c1.609,1.931 4.184,2.897 7.725,2.897c1.448,-0 3.379,-0.362 5.793,-1.086c2.414,-0.725 5.069,-2.173 7.966,-4.346c2.897,-2.172 5.633,-5.592 8.208,-10.259l10.38,6.518c-5.15,9.495 -11.266,16.656 -18.346,21.484c-7.081,4.828 -14.887,7.242 -23.416,7.242c-8.046,-0 -14.162,-1.69 -18.346,-5.069c-4.184,-3.38 -7,-7.806 -8.449,-13.277c-1.448,-5.472 -2.172,-11.185 -2.172,-17.139c0.322,-5.794 0.724,-12.633 1.207,-20.519c0.482,-7.885 1.126,-16.375 1.931,-25.467c0.804,-9.093 1.69,-18.065 2.655,-26.916l-20.036,0.242l1.69,-15.208c11.748,-0 35.566,-24.301 38.141,-35.727l13.759,0Z" style="fill:#fff;fill-rule:nonzero;"/><path d="M1143.68,103.229c7.885,0 13.478,2.455 16.777,7.363c3.299,4.908 4.948,11.466 4.948,19.674c0,4.184 -0.402,9.495 -1.207,15.932c-0.804,6.437 -1.73,13.277 -2.776,20.518c-1.046,7.242 -2.011,14.042 -2.896,20.398c-0.886,6.357 -1.328,11.547 -1.328,15.57c-0,2.736 0.483,4.667 1.448,5.794c0.966,1.126 2.173,1.69 3.621,1.69c2.092,-0 7.886,12.834 3.863,15.328c-4.024,2.495 -8.61,3.742 -13.76,3.742c-8.368,-0 -14.242,-2.253 -17.622,-6.759c-3.379,-4.506 -5.069,-10.863 -5.069,-19.07c-0,-5.472 0.442,-11.467 1.327,-17.984c0.886,-6.518 1.891,-13.116 3.018,-19.795c1.126,-6.678 2.092,-13.075 2.897,-19.191c0.804,-6.115 1.207,-11.587 1.207,-16.415c-0,-2.575 -0.403,-4.506 -1.207,-5.793c-0.805,-1.288 -2.012,-1.931 -3.621,-1.931c-1.931,-0 -7.403,-12.835 -3.38,-15.329c4.023,-2.494 8.61,-3.742 13.76,-3.742Zm10.138,-57.935c4.828,0 8.731,1.69 11.708,5.07c2.977,3.379 4.385,7.644 4.224,12.794c-0.16,4.989 -1.85,9.173 -5.069,12.552c-3.218,3.38 -7.161,5.07 -11.828,5.07c-4.828,-0 -8.771,-1.69 -11.829,-5.07c-3.057,-3.379 -4.506,-7.563 -4.345,-12.552c0.161,-5.15 1.972,-9.415 5.432,-12.794c3.46,-3.38 7.362,-5.07 11.707,-5.07Z" style="fill:#fff;fill-rule:nonzero;"/><path d="M1257.14,103.229c9.012,0 17.099,2.092 24.26,6.277c7.161,4.184 12.874,10.259 17.139,18.225c4.265,7.966 6.397,17.662 6.397,29.088c0,12.714 -2.414,24.623 -7.242,35.727c-4.828,11.104 -11.708,19.995 -20.639,26.674c-8.932,6.679 -19.674,10.018 -32.226,10.018c-10.783,-0 -19.714,-2.454 -26.795,-7.363c-7.081,-4.908 -12.352,-11.506 -15.812,-19.794c-3.46,-8.288 -5.19,-17.421 -5.19,-27.399c0,-12.874 2.414,-24.743 7.242,-35.605c4.828,-10.863 11.748,-19.553 20.76,-26.071c9.012,-6.518 19.714,-9.777 32.106,-9.777Zm-3.621,13.519c-5.472,-0.161 -10.3,2.051 -14.484,6.638c-4.184,4.586 -7.403,10.742 -9.656,18.467c-2.253,7.724 -3.379,16.254 -3.379,25.588c-0.161,5.149 0.08,10.5 0.724,16.052c0.644,5.553 1.81,10.743 3.5,15.57c1.69,4.828 3.983,8.771 6.88,11.829c2.897,3.058 6.518,4.586 10.863,4.586c4.989,0.161 9.213,-1.448 12.673,-4.828c3.46,-3.379 6.236,-7.724 8.328,-13.035c2.092,-5.311 3.661,-10.943 4.707,-16.898c1.046,-5.954 1.65,-11.587 1.811,-16.897c0.161,-4.667 -0.04,-9.737 -0.604,-15.208c-0.563,-5.472 -1.609,-10.622 -3.138,-15.45c-1.529,-4.827 -3.782,-8.73 -6.759,-11.707c-2.977,-2.977 -6.799,-4.547 -11.466,-4.707Z" style="fill:#fff;fill-rule:nonzero;"/><path d="M1425.15,229.238c-8.529,-0 -14.282,-2.293 -17.26,-6.88c-2.977,-4.586 -4.466,-10.903 -4.466,-18.949c0,-4.828 0.322,-10.26 0.966,-16.295c0.644,-6.035 1.408,-12.311 2.293,-18.828c0.885,-6.518 1.65,-12.794 2.294,-18.829c0.643,-6.035 0.965,-11.386 0.965,-16.053c0,-2.253 -0.241,-4.265 -0.724,-6.035c-0.483,-1.77 -1.328,-3.138 -2.535,-4.104c-1.207,-0.965 -2.856,-1.448 -4.948,-1.448c-3.541,-0 -7.081,1.891 -10.622,5.673c-3.54,3.782 -6.96,8.851 -10.259,15.208c-3.299,6.356 -6.236,13.397 -8.811,21.122c-2.575,7.724 -4.627,15.65 -6.156,23.777c-1.528,8.127 -2.293,15.812 -2.293,23.053c0,2.253 0.081,4.989 0.242,8.208c0.161,3.219 0.321,5.793 0.482,7.725l-27.519,-0c-0.322,-2.575 -0.523,-4.466 -0.603,-5.673c-0.081,-1.207 -0.121,-2.615 -0.121,-4.225c0,-3.057 0.201,-6.719 0.604,-10.983c0.402,-4.265 0.925,-9.213 1.569,-14.846c0.643,-5.633 1.368,-11.909 2.172,-18.829c0.805,-6.115 1.489,-11.426 2.052,-15.932c0.563,-4.506 1.046,-8.409 1.448,-11.708c0.403,-3.299 0.684,-6.115 0.845,-8.449c0.161,-2.333 0.242,-4.304 0.242,-5.914c-0,-2.736 -0.362,-4.707 -1.087,-5.914c-0.724,-1.207 -1.81,-1.81 -3.258,-1.81c-2.092,-0 -4.346,1.488 -6.759,4.465c-2.414,2.978 -2.978,-17.3 0.724,-19.794c3.701,-2.494 8.127,-3.742 13.276,-3.742c4.185,0 7.765,0.926 10.743,2.776c2.977,1.851 5.23,4.587 6.759,8.208c1.529,3.621 2.212,8.248 2.052,13.88c-0.161,3.541 -0.443,6.679 -0.845,9.415c-0.403,2.735 -0.845,5.552 -1.328,8.448l0.483,0c4.345,-11.426 8.931,-20.237 13.759,-26.432c4.828,-6.196 9.737,-10.461 14.725,-12.794c4.989,-2.334 9.898,-3.501 14.726,-3.501c6.759,0 12.19,1.489 16.294,4.466c4.104,2.977 7.121,7.121 9.052,12.432c1.931,5.311 2.897,11.426 2.897,18.346c-0,6.759 -0.523,14.041 -1.569,21.846c-1.046,7.806 -2.133,15.369 -3.259,22.692c-1.127,7.322 -1.69,13.799 -1.69,19.432c0,2.575 0.403,4.506 1.207,5.793c0.805,1.288 1.931,1.932 3.38,1.932c2.092,-0 4.345,-1.489 6.759,-4.466c2.414,-2.977 0.885,17.3 -3.138,19.794c-4.024,2.495 -8.61,3.742 -13.76,3.742Z" style="fill:#fff;fill-rule:nonzero;"/></g></svg>