<?xml version="1.0" encoding="UTF-8" standalone="no"?>
<!DOCTYPE svg PUBLIC "-//W3C//DTD SVG 1.1//EN" "http://www.w3.org/Graphics/SVG/1.1/DTD/svg11.dtd">
<svg width="100%" height="100%" viewBox="0 0 77 77" version="1.1" xmlns="http://www.w3.org/2000/svg" xmlns:xlink="http://www.w3.org/1999/xlink" xml:space="preserve" xmlns:serif="http://www.serif.com/" style="fill-rule:evenodd;clip-rule:evenodd;stroke-linejoin:round;stroke-miterlimit:2;">
    <g transform="matrix(1,0,0,1,-345.22,-250.235)">
        <g id="Plan-de-travail3" serif:id="Plan de travail3" transform="matrix(1.02286,0,0,1.02286,739.942,199.242)">
            <rect x="-385.9" y="49.853" width="74.884" height="74.884" style="fill:none;"/>
            <g transform="matrix(0.977649,0,0,0.977649,-637.702,-18.9917)">
                <path d="M281.038,95.203C277.909,93.363 274.745,91.028 271.632,88.107L276.079,83.367C279.399,86.482 282.778,88.836 286.074,90.567C293.643,83.917 303.86,81.226 313.144,86.422C315.974,88.006 317.056,90.065 317.204,91.905C317.362,93.851 316.497,95.951 314.315,97.66C312.368,99.186 309.149,100.499 305.027,100.967C300.256,101.509 294.159,100.96 287.607,98.403C287.577,98.391 287.547,98.38 287.516,98.368C284.905,97.395 281.025,95.193 281.025,95.193L281.038,95.203ZM286.49,99.667C280.923,107.161 278.836,117.682 285.193,125.652C288.441,129.724 293.15,130.674 297.848,130.128C303.098,129.518 308.376,127.078 312.149,124.389L315.921,129.682C311.355,132.936 304.951,135.846 298.599,136.585C291.696,137.388 284.884,135.689 280.112,129.705C271.751,119.223 274.056,105.328 281.456,95.546L286.49,99.667ZM293.028,93.391C297.42,94.666 301.445,94.893 304.709,94.458C306.63,94.202 308.255,93.724 309.465,93.08C309.791,92.906 310.156,92.617 310.417,92.395C310.279,92.29 310.12,92.178 309.969,92.094C304.247,88.891 298.13,90.008 293.028,93.391Z" style="fill:rgb(39,52,221);"/>
            </g>
        </g>
    </g>
</svg>
