<?xml version="1.0" encoding="UTF-8" standalone="no"?>
<!DOCTYPE svg PUBLIC "-//W3C//DTD SVG 1.1//EN" "http://www.w3.org/Graphics/SVG/1.1/DTD/svg11.dtd">
<svg width="100%" height="100%" viewBox="0 0 310 70" version="1.1" xmlns="http://www.w3.org/2000/svg" xmlns:xlink="http://www.w3.org/1999/xlink" xml:space="preserve" xmlns:serif="http://www.serif.com/" style="fill-rule:evenodd;clip-rule:evenodd;stroke-linejoin:round;stroke-miterlimit:2;">
    <g transform="matrix(1,0,0,1,2.27374e-13,-444.941)">
        <g id="Plan-de-travail3" serif:id="Plan de travail3" transform="matrix(4.13254,0,0,0.929352,1594.75,398.61)">
            <rect x="-385.9" y="49.853" width="74.884" height="74.884" style="fill:none;"/>
            <g transform="matrix(0.241982,0,0,1.07602,-449.905,-30.7212)">
                <path d="M281.038,95.203C277.909,93.363 274.745,91.028 271.632,88.107L276.079,83.367C279.399,86.482 282.778,88.836 286.074,90.567C293.643,83.917 303.86,81.226 313.144,86.422C315.974,88.006 317.056,90.065 317.204,91.905C317.362,93.851 316.497,95.951 314.315,97.66C312.368,99.186 309.149,100.499 305.027,100.967C300.256,101.509 294.159,100.96 287.607,98.403L287.516,98.368C284.905,97.395 281.025,95.193 281.025,95.193L281.038,95.203ZM293.028,93.391C297.42,94.666 301.445,94.893 304.709,94.458C306.63,94.202 308.255,93.724 309.465,93.08C309.791,92.906 310.156,92.617 310.417,92.395C310.279,92.29 310.12,92.178 309.969,92.094C304.247,88.891 298.13,90.008 293.028,93.391ZM286.49,99.667C280.923,107.161 278.836,117.682 285.193,125.652C288.441,129.724 293.15,130.674 297.848,130.128C303.098,129.518 308.376,127.078 312.149,124.389L315.921,129.682C311.355,132.936 304.951,135.846 298.599,136.585C291.696,137.388 284.884,135.689 280.112,129.705C271.751,119.223 274.056,105.328 281.456,95.546L286.49,99.667ZM535.319,125.418L535.317,125.418C534.844,111.342 533.237,106.317 533.237,106.317L539.406,104.268C539.406,104.268 539.709,105.152 540.107,107.207C542.754,104.502 546.388,102.889 550.69,102.933C554.671,102.974 557.763,104.387 559.989,106.584C563.179,109.73 564.615,114.647 563.917,119.923C563.52,122.92 563.421,126.158 564.153,128.646C564.561,130.031 565.222,131.189 566.721,131.188L566.724,137.688C562.823,137.691 560.27,135.722 558.737,132.608C557.037,129.155 556.835,123.887 557.473,119.07C558.126,114.132 555.96,109.488 550.623,109.433C545.514,109.38 542.279,113.563 541.918,118.723C541.809,120.287 541.788,122.535 541.806,124.968L541.814,125.2L541.807,125.2C541.842,129.412 541.983,134.126 541.972,136.786L535.472,136.756C535.483,134.143 535.356,129.592 535.319,125.418ZM471.741,99.733C469.657,110.117 468.216,118.922 468.186,124.957C468.177,126.782 468.291,128.312 468.608,129.499C468.701,129.847 468.92,130.299 469.021,130.499C469.289,130.436 469.998,130.256 470.505,130.001C471.615,129.443 472.888,128.552 474.361,127.33L478.512,132.332C475.607,134.743 473.199,136.105 471.303,136.663C469.363,137.234 467.747,137.09 466.419,136.521C464.405,135.659 462.787,133.638 462.109,130.233C460.53,122.293 464.042,104.128 468.698,82.678L475.05,84.056C474.368,87.197 473.707,90.264 473.081,93.233L479.627,93.233L479.627,99.733L471.741,99.733ZM336.035,102.933C340.932,102.933 344.357,104.55 346.713,106.928C350.101,110.348 351.282,115.593 350.924,120.723C350.325,129.283 345.021,137.505 334.101,137.505C329.559,137.505 326.198,136.03 323.802,133.793C320.308,130.53 318.84,125.464 319.203,120.27C319.8,111.744 324.335,102.933 336.035,102.933ZM336.035,109.433C328.619,109.433 326.065,115.32 325.688,120.723C325.466,123.887 326.111,127.055 328.239,129.043C329.592,130.306 331.536,131.005 334.101,131.005C340.95,131.005 344.064,125.639 344.44,120.27C344.665,117.042 344.227,113.655 342.095,111.503C340.772,110.167 338.786,109.433 336.035,109.433ZM515.861,102.933C520.757,102.933 524.182,104.55 526.538,106.928C529.926,110.348 531.108,115.593 530.749,120.723C530.151,129.283 524.846,137.505 513.927,137.505C509.385,137.505 506.023,136.03 503.628,133.793C500.134,130.53 498.666,125.464 499.029,120.27C499.625,111.744 504.16,102.933 515.861,102.933ZM515.861,109.433C508.445,109.433 505.891,115.32 505.513,120.723C505.292,123.887 505.936,127.055 508.065,129.043C509.417,130.306 511.362,131.005 513.927,131.005C520.776,131.005 523.89,125.639 524.265,120.27C524.491,117.042 524.052,113.655 521.921,111.503C520.597,110.167 518.611,109.433 515.861,109.433ZM452.732,127.644L457.77,131.75C454.989,135.163 450.827,137.505 445.068,137.505C440.526,137.505 437.164,136.03 434.769,133.793C431.275,130.53 429.807,125.464 430.17,120.27C430.766,111.744 435.301,102.933 447.002,102.933C452.933,102.933 456.714,105.269 459.038,108.547L453.735,112.307C452.454,110.5 450.271,109.433 447.002,109.433C439.586,109.433 437.032,115.32 436.654,120.723C436.433,123.887 437.077,127.055 439.206,129.043C440.558,130.306 442.503,131.005 445.068,131.005C448.524,131.005 451.062,129.692 452.732,127.644ZM401.415,123.259C401.627,125.509 402.39,127.59 403.945,129.043C405.297,130.306 407.242,131.005 409.807,131.005C414.53,131.005 417.476,128.743 418.89,125.519L424.843,128.13C422.481,133.514 417.693,137.505 409.807,137.505C405.265,137.505 401.903,136.03 399.508,133.793C396.014,130.53 394.546,125.464 394.909,120.27C395.505,111.744 400.04,102.933 411.741,102.933C416.716,102.933 420.172,104.601 422.531,107.044C424.855,109.45 426.129,112.701 426.54,116.206L426.551,116.316L426.475,117.339L426.101,118.272L425.48,119.05L424.636,119.68C422.445,121.012 411.739,125.064 401.415,123.259ZM402.102,116.76C408.707,117.969 416.35,115.814 419.628,114.714C419.266,113.523 418.702,112.436 417.856,111.559C416.533,110.189 414.53,109.433 411.741,109.433C406.141,109.433 403.314,112.79 402.102,116.76ZM364.125,130.499C364.392,130.436 365.102,130.256 365.609,130.001C366.718,129.443 367.992,128.552 369.465,127.33L373.616,132.332C370.71,134.743 368.302,136.105 366.407,136.663C364.467,137.234 362.85,137.09 361.522,136.521C359.509,135.659 357.89,133.638 357.213,130.233C355.633,122.293 359.145,104.128 363.801,82.678L370.153,84.056C366.44,101.164 363.334,116.066 363.289,124.957C363.28,126.782 363.395,128.312 363.711,129.499C363.804,129.847 364.023,130.299 364.125,130.499ZM383.513,130.499C383.78,130.436 384.49,130.256 384.997,130.001C386.107,129.443 387.38,128.552 388.853,127.33L393.004,132.332C390.098,134.743 387.69,136.105 385.795,136.663C383.855,137.234 382.238,137.09 380.91,136.521C378.897,135.659 377.279,133.638 376.601,130.233C375.021,122.293 378.533,104.128 383.189,82.678L389.541,84.056C385.828,101.164 382.722,116.066 382.678,124.957C382.668,126.782 382.783,128.312 383.099,129.499C383.192,129.847 383.411,130.299 383.513,130.499ZM492.352,130.166C492.502,130.145 492.72,130.11 492.88,130.061C493.367,129.91 493.902,129.664 494.496,129.333L497.655,135.014C494.289,136.886 491.694,136.971 489.877,136.258C488.331,135.651 487.093,134.462 486.298,132.598C485.549,130.845 485.199,128.275 485.329,125.042C485.493,120.953 486.372,115.626 487.687,109.568L494.039,110.947C492.386,118.564 491.377,124.89 491.944,128.726C492.022,129.256 492.25,129.894 492.352,130.166ZM494.816,107.858L488.42,106.695C488.725,105.02 489.427,101.895 489.868,100.25L496.147,101.933C495.741,103.445 495.096,106.317 494.816,107.858Z" style="fill:white;"/>
            </g>
        </g>
    </g>
</svg>
