<?xml version="1.0" encoding="UTF-8" standalone="no"?>
<!DOCTYPE svg PUBLIC "-//W3C//DTD SVG 1.1//EN" "http://www.w3.org/Graphics/SVG/1.1/DTD/svg11.dtd">
<svg width="100%" height="100%" viewBox="0 0 24 24" version="1.1" xmlns="http://www.w3.org/2000/svg" xmlns:xlink="http://www.w3.org/1999/xlink" xml:space="preserve" xmlns:serif="http://www.serif.com/" style="fill-rule:evenodd;clip-rule:evenodd;stroke-linejoin:round;stroke-miterlimit:2;">
    <g transform="matrix(1,0,0,1,-306.121,-411.411)">
        <g id="image" transform="matrix(1,0,0,1,-959.974,92.4109)">
            <rect x="1266.1" y="319" width="24" height="24" style="fill:none;"/>
            <g transform="matrix(0.290955,0,0,0.290955,1268.98,321.76)">
                <path d="M59.189,10.601L59.189,52.915C59.189,56.62 56.181,59.628 52.476,59.628L10.162,59.628C6.457,59.628 3.449,56.62 3.449,52.915L3.449,10.601C3.449,6.896 6.457,3.888 10.162,3.888L52.476,3.888C56.181,3.888 59.189,6.896 59.189,10.601ZM54.034,32.573L54.034,10.601C54.034,9.741 53.336,9.044 52.476,9.044L10.162,9.044C9.302,9.044 8.605,9.741 8.605,10.601L8.605,42.603L25.651,35.297C26.318,35.012 27.073,35.02 27.733,35.32L38.964,40.425L52.89,32.883C53.255,32.686 53.646,32.586 54.034,32.573ZM8.605,48.173L8.605,52.915C8.605,53.775 9.302,54.473 10.162,54.473L52.476,54.473C53.336,54.473 54.034,53.775 54.034,52.915L54.034,38.127L40.292,45.569C39.582,45.953 38.732,45.983 37.997,45.649L26.636,40.484L9.015,48.036C8.88,48.094 8.743,48.139 8.605,48.173ZM43.05,12.072C47.882,12.072 51.804,15.995 51.804,20.826C51.804,25.658 47.882,29.581 43.05,29.581C38.218,29.581 34.296,25.658 34.296,20.826C34.296,15.995 38.218,12.072 43.05,12.072ZM43.05,17.228C41.064,17.228 39.451,18.84 39.451,20.826C39.451,22.813 41.064,24.425 43.05,24.425C45.036,24.425 46.649,22.813 46.649,20.826C46.649,18.84 45.036,17.228 43.05,17.228Z" style="fill:white;"/>
            </g>
        </g>
    </g>
</svg>
