<?xml version="1.0" encoding="UTF-8" standalone="no"?>
<!DOCTYPE svg PUBLIC "-//W3C//DTD SVG 1.1//EN" "http://www.w3.org/Graphics/SVG/1.1/DTD/svg11.dtd">
<svg width="100%" height="100%" viewBox="0 0 24 24" version="1.1" xmlns="http://www.w3.org/2000/svg" xmlns:xlink="http://www.w3.org/1999/xlink" xml:space="preserve" xmlns:serif="http://www.serif.com/" style="fill-rule:evenodd;clip-rule:evenodd;stroke-linejoin:round;stroke-miterlimit:2;">
    <g transform="matrix(1,0,0,1,-428.417,-409.599)">
        <g id="image" transform="matrix(1,0,0,1,-837.678,90.5987)">
            <rect x="1266.1" y="319" width="24" height="24" style="fill:none;"/>
            <g transform="matrix(0.736096,0,0,0.736096,1141.75,-198.435)">
                <path d="M184.839,712.716C185.401,712.716 185.858,713.172 185.858,713.735C185.858,714.297 185.401,714.753 184.839,714.753L176.101,714.753C175.932,714.753 175.794,714.891 175.794,715.061L175.794,728.637C175.794,728.806 175.932,728.944 176.101,728.944L189.677,728.944C189.847,728.944 189.985,728.806 189.985,728.637L189.985,719.715C189.985,719.153 190.441,718.696 191.004,718.696C191.566,718.696 192.022,719.153 192.022,719.715L192.022,728.637C192.022,729.931 190.971,730.982 189.677,730.982L176.101,730.982C174.807,730.982 173.756,729.931 173.756,728.637L173.756,715.061C173.756,713.767 174.807,712.716 176.101,712.716L184.839,712.716ZM194.654,711.063L185.87,720.201C185.48,720.606 184.835,720.619 184.429,720.229C184.024,719.839 184.011,719.194 184.401,718.789L193.28,709.552L188.392,709.552C187.829,709.552 187.373,709.096 187.373,708.533C187.373,707.971 187.829,707.515 188.392,707.515L195.673,707.515C196.236,707.515 196.692,707.971 196.692,708.533L196.692,716.108C196.692,716.67 196.236,717.127 195.673,717.127C195.111,717.127 194.654,716.67 194.654,716.108L194.654,711.063Z"/>
            </g>
        </g>
    </g>
</svg>
