<?xml version="1.0" encoding="UTF-8" standalone="no"?>
<!DOCTYPE svg PUBLIC "-//W3C//DTD SVG 1.1//EN" "http://www.w3.org/Graphics/SVG/1.1/DTD/svg11.dtd">
<svg width="100%" height="100%" viewBox="0 0 24 24" version="1.1" xmlns="http://www.w3.org/2000/svg" xmlns:xlink="http://www.w3.org/1999/xlink" xml:space="preserve" xmlns:serif="http://www.serif.com/" style="fill-rule:evenodd;clip-rule:evenodd;stroke-linejoin:round;stroke-miterlimit:2;">
    <g transform="matrix(1,0,0,1,-303.036,-311.698)">
        <g id="Pages" transform="matrix(0.51276,0,0,0.51276,213.878,252.981)">
            <rect x="173.879" y="114.512" width="46.806" height="46.806" style="fill:none;"/>
            <g transform="matrix(1.36062,0,0,1.95179,-907.587,-148.845)">
                <path d="M818.51,153.3L818.51,153.715C818.51,154.882 817.15,155.83 815.476,155.83L804.325,155.83C802.651,155.83 801.292,154.882 801.292,153.715L801.292,143.222C801.292,142.055 802.651,141.107 804.325,141.107L804.918,141.107L804.918,140.187C804.918,138.987 806.315,138.014 808.035,138.014L819.661,138.014C821.382,138.014 822.778,138.987 822.778,140.187L822.778,151.127C822.778,152.326 821.382,153.3 819.661,153.3L818.51,153.3ZM807.068,141.107L815.476,141.107C817.15,141.107 818.51,142.055 818.51,143.222L818.51,151.801L819.661,151.801C820.195,151.801 820.628,151.499 820.628,151.127L820.628,140.187C820.628,139.815 820.195,139.512 819.661,139.512L808.035,139.512C807.501,139.512 807.068,139.815 807.068,140.187L807.068,141.107ZM816.36,143.222C816.36,142.882 815.964,142.606 815.476,142.606L804.325,142.606C803.838,142.606 803.442,142.882 803.442,143.222L803.442,153.715C803.442,154.055 803.838,154.331 804.325,154.331L815.476,154.331C815.964,154.331 816.36,154.055 816.36,153.715L816.36,143.222Z"/>
            </g>
        </g>
    </g>
</svg>
