<?xml version="1.0" encoding="UTF-8" standalone="no"?>
<!DOCTYPE svg PUBLIC "-//W3C//DTD SVG 1.1//EN" "http://www.w3.org/Graphics/SVG/1.1/DTD/svg11.dtd">
<svg width="100%" height="100%" viewBox="0 0 24 24" version="1.1" xmlns="http://www.w3.org/2000/svg" xmlns:xlink="http://www.w3.org/1999/xlink" xml:space="preserve" xmlns:serif="http://www.serif.com/" style="fill-rule:evenodd;clip-rule:evenodd;stroke-linecap:round;stroke-linejoin:round;stroke-miterlimit:1.5;">
    <g transform="matrix(1,0,0,1,-651.081,-338.814)">
        <g id="masquer" transform="matrix(0.51276,0,0,0.51276,561.922,280.097)">
            <rect x="173.879" y="114.512" width="46.806" height="46.806" style="fill:none;"/>
            <g transform="matrix(-2.06132,2.52439e-16,-1.51929e-16,-1.2406,1559.76,153.294)">
                <path d="M669.106,12.397C669.106,12.397 665.463,20.527 660.976,20.527C656.488,20.527 652.845,12.397 652.845,12.397" style="fill:none;stroke:black;stroke-width:1.72px;"/>
            </g>
            <g transform="matrix(-1.95023,2.38834e-16,-2.38834e-16,-1.95023,1573.35,276.256)">
                <path d="M699.516,73.522L698.387,74.739" style="fill:none;stroke:black;stroke-width:1.5px;"/>
            </g>
            <g transform="matrix(-1.97425,0.0637555,0.0637555,-2.11945,1585.42,244.231)">
                <path d="M703.201,75.689L702.711,76.99" style="fill:none;stroke:black;stroke-width:1.47px;"/>
            </g>
            <g transform="matrix(-1.95023,2.38834e-16,-2.38834e-16,-1.95023,1573.35,276.256)">
                <path d="M707.983,75.689L708.683,77.119" style="fill:none;stroke:black;stroke-width:1.5px;"/>
            </g>
            <g transform="matrix(-1.95023,-9.72105e-15,-1.01987e-14,-1.95023,1573.35,276.256)">
                <path d="M711.668,73.522L712.893,74.739" style="fill:none;stroke:black;stroke-width:1.5px;"/>
            </g>
            <g transform="matrix(1.76367,0,0,1.76367,-973.704,-481.289)">
                <circle cx="663.947" cy="351.485" r="3.257" style="fill:none;stroke:black;stroke-width:1.66px;"/>
            </g>
        </g>
    </g>
</svg>
