<?xml version="1.0" encoding="UTF-8" standalone="no"?>
<!DOCTYPE svg PUBLIC "-//W3C//DTD SVG 1.1//EN" "http://www.w3.org/Graphics/SVG/1.1/DTD/svg11.dtd">
<svg width="100%" height="100%" viewBox="0 0 24 24" version="1.1" xmlns="http://www.w3.org/2000/svg" xmlns:xlink="http://www.w3.org/1999/xlink" xml:space="preserve" xmlns:serif="http://www.serif.com/" style="fill-rule:evenodd;clip-rule:evenodd;stroke-linejoin:round;stroke-miterlimit:2;">
    <g transform="matrix(1,0,0,1,-306.121,-379.709)">
        <g id="image" transform="matrix(1,0,0,1,-959.974,60.7092)">
            <rect x="1266.1" y="319" width="24" height="24" style="fill:none;"/>
            <g transform="matrix(1.52267,0,0,1.52267,1257.99,-116.086)">
                <path d="M14.677,288.523C14.677,288.523 14.861,289.719 14.861,289.718C15.179,289.853 15.479,290.027 15.755,290.234L16.883,289.796C17.076,289.721 17.296,289.775 17.432,289.932C17.91,290.479 18.277,291.115 18.512,291.802C18.579,291.999 18.516,292.216 18.355,292.346C18.355,292.346 17.411,293.104 17.411,293.103C17.453,293.446 17.453,293.793 17.411,294.135L18.355,294.893C18.516,295.023 18.579,295.24 18.512,295.437C18.277,296.124 17.91,296.76 17.432,297.307C17.296,297.464 17.076,297.518 16.883,297.443C16.883,297.443 15.755,297.004 15.755,297.004C15.479,297.212 15.179,297.385 14.861,297.52L14.677,298.716C14.645,298.921 14.488,299.084 14.285,299.124C13.572,299.264 12.838,299.264 12.125,299.124C11.921,299.084 11.764,298.921 11.733,298.716C11.733,298.716 11.548,297.52 11.549,297.52C11.231,297.385 10.93,297.212 10.655,297.004L9.527,297.443C9.333,297.518 9.114,297.464 8.977,297.307C8.499,296.76 8.133,296.124 7.897,295.437C7.83,295.24 7.893,295.023 8.055,294.893C8.055,294.893 8.998,294.135 8.998,294.136C8.956,293.793 8.956,293.446 8.998,293.104L8.055,292.346C7.893,292.216 7.83,291.999 7.897,291.802C8.133,291.115 8.499,290.479 8.977,289.932C9.114,289.775 9.333,289.721 9.527,289.796C9.527,289.796 10.655,290.234 10.655,290.235C10.93,290.027 11.231,289.853 11.548,289.719L11.733,288.523C11.764,288.318 11.921,288.154 12.125,288.114C12.838,287.974 13.572,287.974 14.285,288.114C14.488,288.154 14.645,288.318 14.677,288.523ZM13.758,289.028C13.39,288.984 13.019,288.984 12.652,289.028L12.478,290.151C12.45,290.332 12.324,290.483 12.151,290.542C11.752,290.678 11.384,290.891 11.066,291.168C10.928,291.289 10.735,291.322 10.564,291.256C10.564,291.256 9.505,290.845 9.505,290.845C9.283,291.141 9.097,291.462 8.952,291.803L9.838,292.514C9.981,292.629 10.048,292.813 10.013,292.993C9.932,293.407 9.932,293.832 10.013,294.246C10.048,294.425 9.981,294.61 9.838,294.724C9.838,294.724 8.952,295.436 8.952,295.436C9.097,295.777 9.283,296.098 9.505,296.394L10.564,295.983C10.735,295.916 10.928,295.95 11.066,296.071C11.384,296.348 11.752,296.56 12.151,296.697C12.324,296.756 12.45,296.907 12.478,297.088C12.478,297.088 12.652,298.211 12.652,298.211C13.019,298.255 13.39,298.255 13.758,298.211L13.931,297.088C13.959,296.907 14.085,296.756 14.258,296.697C14.657,296.56 15.025,296.348 15.343,296.071C15.481,295.95 15.675,295.916 15.845,295.983C15.845,295.983 16.905,296.394 16.905,296.394C17.127,296.098 17.312,295.777 17.458,295.436L16.572,294.724C16.429,294.61 16.361,294.425 16.397,294.246C16.478,293.832 16.478,293.407 16.397,292.993C16.361,292.813 16.429,292.629 16.572,292.514C16.572,292.514 17.458,291.803 17.458,291.802C17.312,291.462 17.127,291.141 16.905,290.845L15.845,291.256C15.675,291.322 15.481,291.289 15.343,291.168C15.025,290.891 14.657,290.678 14.258,290.542C14.085,290.483 13.959,290.332 13.931,290.151L13.758,289.028ZM13.205,291.468C14.392,291.468 15.356,292.432 15.356,293.619C15.356,294.807 14.392,295.77 13.205,295.77C12.018,295.77 11.054,294.807 11.054,293.619C11.054,292.432 12.018,291.468 13.205,291.468ZM13.205,292.453C12.561,292.453 12.039,292.976 12.039,293.619C12.039,294.263 12.561,294.785 13.205,294.785C13.848,294.785 14.371,294.263 14.371,293.619C14.371,292.976 13.848,292.453 13.205,292.453Z" style="fill:white;"/>
            </g>
        </g>
    </g>
</svg>
