<?xml version="1.0" encoding="UTF-8" standalone="no"?>
<!DOCTYPE svg PUBLIC "-//W3C//DTD SVG 1.1//EN" "http://www.w3.org/Graphics/SVG/1.1/DTD/svg11.dtd">
<svg width="100%" height="100%" viewBox="0 0 24 24" version="1.1" xmlns="http://www.w3.org/2000/svg" xmlns:xlink="http://www.w3.org/1999/xlink" xml:space="preserve" xmlns:serif="http://www.serif.com/" style="fill-rule:evenodd;clip-rule:evenodd;stroke-linecap:round;stroke-linejoin:round;stroke-miterlimit:1.5;">
    <g transform="matrix(1,0,0,1,-446.682,-236.492)">
        <g id="Devis" transform="matrix(0.51276,0,0,0.51276,357.524,177.775)">
            <rect x="173.879" y="114.512" width="46.806" height="46.806" style="fill:none;"/>
            <g transform="matrix(1.95023,0,0,1.95023,-696.274,-392.879)">
                <path d="M450.089,277.237C449.943,277.655 450.008,278.118 450.265,278.479C450.521,278.84 450.936,279.054 451.379,279.054C454.734,279.054 461.613,279.054 464.979,279.054C465.424,279.054 465.841,278.838 466.097,278.474C466.353,278.111 466.416,277.645 466.266,277.227C465.524,275.154 464.343,271.857 463.776,270.274C463.581,269.731 463.066,269.368 462.489,269.368C460.474,269.368 455.83,269.368 453.808,269.368C453.227,269.368 452.709,269.736 452.518,270.285C451.962,271.874 450.811,275.169 450.089,277.237Z" style="fill:none;stroke:black;stroke-width:1.5px;"/>
            </g>
            <g transform="matrix(1.74019,0,0,1.74019,-601.159,-295.42)">
                <circle cx="458.825" cy="243.589" r="2.288" style="fill:none;stroke:black;stroke-width:1.68px;"/>
            </g>
        </g>
    </g>
</svg>
